# xmcd CD database file
#
# Track frame offsets:
#	150
#	14994
#	27516
#	42274
#	58269
#	68834
#	90341
#	105448
#	118637
#	136175
#	154706
#	166816
#	180869
#	196697
#	209089
#	226072
#	248251
#
# Disc length: 3598 seconds
#
# Revision: 0
# Processed by: cddbd v1.5.2PL0 Copyright (c) Steve Scherf et al.
# Submitted via: CDex 1.70beta2
#
DISCID=d50e0c11
DTITLE=Roger Cicero - Männersachen
DYEAR=2006
DGENRE=Jazz
TTITLE0=Zieh die Schuh aus
TTITLE1=Kein Mann für eine Frau
TTITLE2=Kompromisse
TTITLE3=Ich atme ein (New Version)
TTITLE4=Schiess mich doch zum Mond
TTITLE5=Wenn sie dich fragt
TTITLE6=Fachmann in Sachen Anna
TTITLE7=Ich Idiot ließ dich gehen
TTITLE8=Mein guter Stern auf allen Wegen
TTITLE9=Murphys Gesetz
TTITLE10=Schön dass du da bist
TTITLE11=Das ganze Leben ist ein Zoo
TTITLE12=Du willst es doch auch
TTITLE13=So geil Berlin
TTITLE14=Wenn ich den Blues nicht hätt'
TTITLE15=König von Deutschland (Live Version)
TTITLE16=Tausendmal berührt (Live Version)
EXTD=YEAR: 2006
EXTT0=
EXTT1=
EXTT2=
EXTT3=
EXTT4=
EXTT5=
EXTT6=
EXTT7=
EXTT8=
EXTT9=
EXTT10=
EXTT11=
EXTT12=
EXTT13=
EXTT14=
EXTT15=
EXTT16=
PLAYORDER=
